<svg width="20" height="20" viewBox="0 0 20 20" fill="none" xmlns="http://www.w3.org/2000/svg">
<path fill-rule="evenodd" clip-rule="evenodd" d="M9.75386 0C12.2282 0 14.2456 2.00286 14.2726 4.47388L14.4918 4.4749C17.2538 4.4749 19.4998 6.7199 19.4998 9.4799V14.9959C19.4998 17.7549 17.2538 19.9999 14.4918 19.9999H5.00776C2.24676 19.9999 -0.000244141 17.7549 -0.000244141 14.9959V9.4799C-0.000244141 6.7199 2.24676 4.4749 5.00776 4.4749L5.21176 4.474L5.2181 4.27952C5.2809 3.14506 5.74812 2.10433 6.54986 1.311C7.40786 0.46 8.55986 0.035 9.75386 0ZM14.4918 5.9749L14.2728 5.974L14.2729 7.556C14.2729 7.97 13.9369 8.306 13.5229 8.306C13.1089 8.306 12.7729 7.97 12.7729 7.556L12.7728 5.974H6.71076L6.71086 7.556C6.71086 7.97 6.37486 8.306 5.96086 8.306C5.54686 8.306 5.21086 7.97 5.21086 7.556L5.21076 5.974L5.00776 5.9749C3.07376 5.9749 1.49976 7.5469 1.49976 9.4799V14.9959C1.49976 16.9279 3.07376 18.4999 5.00776 18.4999H14.4918C16.4258 18.4999 17.9998 16.9279 17.9998 14.9959V9.4799C17.9998 7.5469 16.4258 5.9749 14.4918 5.9749ZM9.75086 1.5C8.93986 1.528 8.17986 1.808 7.60586 2.376C7.04019 2.93674 6.72314 3.68007 6.71119 4.4739L12.7708 4.474L12.7677 4.34663C12.6757 2.7618 11.3583 1.5 9.75086 1.5Z" fill="#D8BCFF"/>
</svg>
