<svg width="55" height="55" viewBox="0 0 55 55" fill="none" xmlns="http://www.w3.org/2000/svg">
<path d="M33.3651 44.5415C33.3651 44.5415 31.2983 44.4254 30.6839 43.4715L30.5679 37.1981L36.3085 34.9036L37.6792 36.7899C37.6792 36.7899 37.662 37.6793 37.7222 38.7536L33.3651 44.5415Z" fill="#2F2F2F"/>
<path d="M22.7134 40.0468C22.7134 40.0468 21.7337 39.3164 20.2986 39.3164L17.888 24.7414L35.7587 8.55503C35.7587 8.55503 37.0864 8.49918 38.9255 8.72261L42.1653 10.3339L45.895 17.7933L47.1583 25.141L44.4599 31.3371L30.9161 37.1937L22.7134 40.0468ZM10.5146 45.9164C10.5146 45.9164 9.85285 39.0242 9.66808 36.532L10.7724 34.8433L9.46613 31.5605C9.46613 31.5605 9.16535 26.98 9.39308 24.6855L16.9685 32.1449L18.3521 41.6281L18.5111 43.6519L16.5689 47.4675L12.4353 47.1238L10.5146 45.9164Z" fill="#2F2F2F"/>
<path d="M37.7222 38.7536C37.7136 38.7579 37.705 38.7622 37.7007 38.7665C37.4988 38.8653 37.3011 38.9556 37.112 39.0329C36.3171 39.3509 35.6081 39.5657 34.9421 39.686C34.607 39.7462 34.2718 39.7634 33.9753 39.7849C33.8163 39.7935 33.5972 39.8063 33.4425 39.8278C33.2534 40.3778 33.2706 41.3747 33.2835 42.0665C33.2921 42.2813 33.2921 42.4876 33.2921 42.6853C33.2921 43.2481 33.3179 43.8583 33.3609 44.5501C34.3534 44.5587 35.389 44.679 36.3257 44.2794C36.9788 44.0087 37.473 43.7724 37.6706 43.0591C37.7866 42.6509 37.8081 42.2169 37.8167 41.7915L37.8253 41.5638C37.8726 40.7688 37.7695 39.9653 37.7222 39.1747C37.7265 39.0329 37.7265 38.8911 37.7222 38.7536ZM18.5109 43.6521C16.2679 44.8423 13.6167 45.5899 10.5101 45.9165C10.4757 46.6856 10.5015 47.588 11.1546 47.9618C12.2288 48.572 13.4835 48.8813 14.721 48.8813C14.9659 48.8813 15.2109 48.8685 15.4472 48.847C16.2722 48.7653 17.2261 48.5849 17.905 48.0821C18.773 47.4419 18.687 46.531 18.6355 45.5728C18.6097 44.9325 18.5281 44.288 18.5109 43.6521ZM13.1183 35.0239C13.4835 34.6028 13.5609 34.2591 13.5437 34.186C13.4534 34.0271 12.8476 33.7392 12.5253 33.5888C12.2589 33.4642 11.9925 33.3353 11.7562 33.202C11.0644 32.8196 10.2265 32.2911 9.46595 31.5649C9.44017 32.6821 9.45735 33.7993 9.51751 34.8907C9.54759 35.445 9.59915 35.9907 9.6679 36.5364C11.1589 36.3817 12.2718 36.0036 13.1183 35.0239Z" fill="#7F7F7F"/>
<path d="M54.0375 31.8484L53.8957 31.8312C53.5132 31.8312 53.2125 32.2609 52.9332 32.4715C52.6324 32.6992 52.3144 32.798 52.0007 32.798C51.8289 32.798 51.657 32.768 51.4894 32.7121C49.4484 32.0289 49.4527 28.7934 49.5558 27.1047C49.5988 26.3871 49.6718 25.6695 49.7019 24.9477C49.8136 22.275 49.8695 19.5723 48.7609 17.0758C47.0808 13.2816 43.8882 9.83125 39.7632 8.88594C39.4839 8.82148 39.2046 8.76992 38.921 8.72266C39.0714 8.92031 39.2132 9.12656 39.3421 9.3457C40.1929 10.8109 40.6699 12.3449 41.1339 13.823C41.2414 14.1711 41.3488 14.5191 41.4648 14.8629C41.671 15.4945 42.0406 16.1391 42.4273 16.8266C43.1105 18.0211 43.8796 19.3789 44.0171 21.0504C44.2019 23.2418 42.9773 25.3473 40.8246 26.5547C39.9136 27.066 38.8609 27.3238 37.6835 27.3238C36.8843 27.3238 36.0378 27.2035 35.1656 26.9672C34.723 26.8469 34.3406 26.6664 34.0312 26.5203L33.9753 26.4945C33.507 28.2605 32.3082 31.3113 29.3863 32.9957C29.1156 33.1504 28.8492 33.2879 28.5828 33.4168C27.8068 33.8923 27.0736 34.4344 26.3914 35.0367C26.2281 35.1785 26.0734 35.3289 25.9187 35.4793C25.9015 35.4965 25.8886 35.5137 25.8714 35.5352C25.8414 35.5695 25.807 35.591 25.7769 35.6168C25.2828 36.1066 24.8273 36.6266 24.4492 37.1551C24.2601 37.4215 24.0753 37.7008 23.8949 37.9758C23.839 38.0574 23.7875 38.1648 23.7273 38.268C23.5125 38.7363 23.2718 39.2004 22.9882 39.6644C22.9066 39.7977 22.8078 39.9223 22.7175 40.0512C22.7906 40.15 22.8636 40.2445 22.9367 40.3562C24.3031 42.466 23.5039 45.0441 23.766 47.3773C23.9593 49.0531 25.8242 49.4957 27.5515 49.4957C28.3851 49.4957 29.1886 49.3926 29.7558 49.2723C30.4003 49.1391 31.2296 48.791 31.5605 48.1895C31.973 47.4375 31.6894 46.4621 31.6207 45.6629C31.5734 45.143 31.539 44.623 31.5089 44.1031C31.4875 43.6305 31.4703 43.1578 31.4703 42.6852C31.466 41.4691 31.3113 39.7676 31.9687 38.6805C32.4929 37.8082 33.7648 38.0402 34.6285 37.8812C35.2386 37.7695 35.8574 37.5676 36.4417 37.3312C36.8285 37.1766 37.2582 36.923 37.6878 36.7941C37.8511 36.7426 38.0144 36.7125 38.1777 36.7125H38.182C39.3421 36.7168 40.0812 37.7437 40.4292 38.7277C40.8589 39.9609 40.5496 41.2586 40.6183 42.5219C40.6699 43.4199 40.8804 44.4641 41.8386 44.7992C42.5777 45.0613 43.5058 45.2246 44.4339 45.2246C45.4781 45.2246 46.5179 45.0141 47.2742 44.4984C48.3914 43.7379 48.5117 42.3156 48.5632 41.0867C48.6578 38.9039 48.3613 36.7254 48.4773 34.5426C48.4816 34.4652 48.4128 34.1559 48.516 34.1344H48.5289C48.6148 34.1344 48.6921 34.2762 48.7351 34.3234C49.3367 34.998 50.2648 35.3203 51.2058 35.3203C52.207 35.3203 53.2167 34.9551 53.8441 34.259C54.1792 33.8852 54.5187 33.232 54.5531 32.725C54.5832 32.3254 54.4414 31.9602 54.0375 31.8484Z" fill="#7F7F7F"/>
<mask id="mask0_5_10420" style="mask-type:luminance" maskUnits="userSpaceOnUse" x="22" y="8" width="33" height="42">
<path d="M54.0375 31.8484L53.8957 31.8312C53.5132 31.8312 53.2125 32.2609 52.9332 32.4715C52.6324 32.6992 52.3144 32.798 52.0007 32.798C51.8289 32.798 51.657 32.768 51.4894 32.7121C49.4484 32.0289 49.4527 28.7934 49.5558 27.1047C49.5988 26.3871 49.6718 25.6695 49.7019 24.9477C49.8136 22.275 49.8695 19.5723 48.7609 17.0758C47.0808 13.2816 43.8882 9.83125 39.7632 8.88594C39.4839 8.82148 39.2046 8.76992 38.921 8.72266C39.0714 8.92031 39.2132 9.12656 39.3421 9.3457C40.1929 10.8109 40.6699 12.3449 41.1339 13.823C41.2414 14.1711 41.3488 14.5191 41.4648 14.8629C41.671 15.4945 42.0406 16.1391 42.4273 16.8266C43.1105 18.0211 43.8796 19.3789 44.0171 21.0504C44.2019 23.2418 42.9773 25.3473 40.8246 26.5547C39.9136 27.066 38.8609 27.3238 37.6835 27.3238C36.8843 27.3238 36.0378 27.2035 35.1656 26.9672C34.723 26.8469 34.3406 26.6664 34.0312 26.5203L33.9753 26.4945C33.507 28.2605 32.3082 31.3113 29.3863 32.9957C29.1156 33.1504 28.8492 33.2879 28.5828 33.4168C27.8068 33.8923 27.0736 34.4344 26.3914 35.0367C26.2281 35.1785 26.0734 35.3289 25.9187 35.4793C25.9015 35.4965 25.8886 35.5137 25.8714 35.5352C25.8414 35.5695 25.807 35.591 25.7769 35.6168C25.2828 36.1066 24.8273 36.6266 24.4492 37.1551C24.2601 37.4215 24.0753 37.7008 23.8949 37.9758C23.839 38.0574 23.7875 38.1648 23.7273 38.268C23.5125 38.7363 23.2718 39.2004 22.9882 39.6644C22.9066 39.7977 22.8078 39.9223 22.7175 40.0512C22.7906 40.15 22.8636 40.2445 22.9367 40.3562C24.3031 42.466 23.5039 45.0441 23.766 47.3773C23.9593 49.0531 25.8242 49.4957 27.5515 49.4957C28.3851 49.4957 29.1886 49.3926 29.7558 49.2723C30.4003 49.1391 31.2296 48.791 31.5605 48.1895C31.973 47.4375 31.6894 46.4621 31.6207 45.6629C31.5734 45.143 31.539 44.623 31.5089 44.1031C31.4875 43.6305 31.4703 43.1578 31.4703 42.6852C31.466 41.4691 31.3113 39.7676 31.9687 38.6805C32.4929 37.8082 33.7648 38.0402 34.6285 37.8812C35.2386 37.7695 35.8574 37.5676 36.4417 37.3312C36.8285 37.1766 37.2582 36.923 37.6878 36.7941C37.8511 36.7426 38.0144 36.7125 38.1777 36.7125H38.182C39.3421 36.7168 40.0812 37.7437 40.4292 38.7277C40.8589 39.9609 40.5496 41.2586 40.6183 42.5219C40.6699 43.4199 40.8804 44.4641 41.8386 44.7992C42.5777 45.0613 43.5058 45.2246 44.4339 45.2246C45.4781 45.2246 46.5179 45.0141 47.2742 44.4984C48.3914 43.7379 48.5117 42.3156 48.5632 41.0867C48.6578 38.9039 48.3613 36.7254 48.4773 34.5426C48.4816 34.4652 48.4128 34.1559 48.516 34.1344H48.5289C48.6148 34.1344 48.6921 34.2762 48.7351 34.3234C49.3367 34.998 50.2648 35.3203 51.2058 35.3203C52.207 35.3203 53.2167 34.9551 53.8441 34.259C54.1792 33.8852 54.5187 33.232 54.5531 32.725C54.5832 32.3254 54.4414 31.9602 54.0375 31.8484Z" fill="white"/>
</mask>
<g mask="url(#mask0_5_10420)">
<path d="M39.1058 12.2675C39.0843 12.289 39.0714 12.3105 39.0542 12.3277C39.3206 12.0312 44.1546 12.8992 47.4159 17.6816C49.6546 20.9644 49.7448 23.9937 49.7448 23.9937C49.7448 23.9937 51.962 17.2605 45.8261 11.7132C45.203 11.1504 44.5456 10.6906 43.8581 10.2179C43.119 9.7152 42.2382 9.47457 41.4604 9.03629C41.0522 8.80426 40.6999 8.59371 40.2315 8.45621C39.8835 8.35738 39.5397 8.29723 39.1831 8.20699C38.8737 8.12965 38.5042 8.09098 38.1905 8.05231C37.9671 8.02653 37.4343 7.97926 37.271 8.12965L39.1058 12.2675Z" fill="#7F7F7F"/>
</g>
<path d="M20.4574 30.4091C20.4574 30.2243 20.5734 30.0524 20.7496 29.9837C20.9258 29.9192 21.1234 29.9622 21.2566 30.0997C21.2781 30.1255 23.448 32.4372 25.7383 32.4329C25.7812 32.4243 25.8242 32.42 25.8629 32.4114C26.7824 32.2481 27.6633 31.87 28.4711 31.406C30.4648 30.2587 31.6894 28.0716 32.2351 25.8931C32.3855 25.2958 32.5016 24.6384 33.1976 24.4923C33.3051 24.4708 33.4125 24.4579 33.5113 24.4579C34.2719 24.4579 34.925 24.9993 35.6469 25.197C36.3 25.3731 36.9961 25.4892 37.6879 25.4892C38.4699 25.4892 39.2476 25.3388 39.9351 24.9563C41.293 24.1958 42.3285 22.8122 42.191 21.2095C42.0105 19.0696 40.3777 17.4239 39.7246 15.4388C39.1488 13.6771 38.6976 11.8853 37.7609 10.2696C37.2625 9.41455 36.5707 8.86885 35.7629 8.55518C35.1871 8.33174 34.5555 8.22432 33.8851 8.22432C33.7906 8.22432 33.6961 8.22432 33.5973 8.22861C31.784 8.30596 30.1898 9.25986 28.4152 9.45752C28.3078 9.47041 28.2047 9.47471 28.1016 9.47471C27.8437 9.47471 27.5902 9.44033 27.341 9.38018C26.8941 9.27275 26.4687 9.07939 26.0519 8.86885C25.7812 8.73135 25.5148 8.59385 25.2484 8.45635C23.9894 7.80752 22.6789 7.53682 21.3641 7.53682C19.4777 7.53682 17.5828 8.09111 15.8125 8.88174C15.4344 9.04932 15.0562 9.17393 14.6609 9.17393C14.4547 9.17393 14.2398 9.13955 14.0207 9.05361C12.2933 8.3876 10.5273 7.52393 8.63671 7.52393C8.49921 7.52393 8.35311 7.52822 8.21991 7.53682C6.71171 7.64424 5.38827 8.46924 4.37421 9.54775C3.26561 10.7294 2.99491 12.229 2.72421 13.763C2.39335 15.6708 1.81327 17.3337 1.15155 19.1341C0.945302 19.6927 0.532802 20.2899 0.464052 20.8829C0.21913 23.0915 2.16561 24.0454 4.07343 24.0454C4.70507 24.0454 5.33241 23.9423 5.87382 23.7403C6.25194 23.6028 7.08124 23.0356 7.66561 23.0356C7.94061 23.0356 8.15975 23.1603 8.25429 23.5169C8.40038 24.0927 8.31015 24.6813 8.38319 25.27C8.38749 25.3044 8.39608 25.3388 8.40038 25.3731C8.49491 26.0649 8.67538 26.7438 8.9289 27.397C9.12655 27.9083 9.36288 28.3938 9.65077 28.8579C9.84413 29.1716 10.0504 29.4767 10.2824 29.7603C10.9269 30.5509 11.7648 31.1009 12.6457 31.595C13.4793 32.0634 14.6308 32.3942 15.1336 33.2751C15.7008 34.272 15.1851 35.4364 14.4976 36.227C13.2601 37.6579 11.6445 38.1692 9.91718 38.354C9.6164 38.3884 9.30702 38.4099 8.99765 38.427C8.69257 38.4442 8.38319 38.4485 8.07382 38.4528C7.70858 38.4614 7.34335 38.4614 6.97811 38.4614H6.91366C5.92538 38.4614 4.94999 38.4614 4.02616 38.5688C2.7328 38.7149 2.67694 40.9622 2.80155 41.886C3.08085 44.0345 4.49022 44.2923 6.18749 44.2923C6.5871 44.2923 6.9996 44.2794 7.4164 44.2708C7.85038 44.2622 8.28866 44.245 8.73124 44.2192C9.03632 44.2021 9.34569 44.1763 9.65077 44.1505C9.96014 44.1247 10.2695 44.0989 10.5746 44.0646C13.4707 43.738 16.3281 42.956 18.773 41.3575C18.8289 41.3231 18.8848 41.2931 18.9406 41.2587C19.7828 40.6872 20.5348 39.9353 21.1277 39.0974C21.2266 38.9599 21.3297 38.8267 21.4199 38.6849C22.0172 37.7181 22.4812 36.6696 22.6961 35.5524C22.7047 35.5052 22.709 35.4579 22.7176 35.4106C21.7808 34.6157 20.4574 33.0259 20.4574 30.4091Z" fill="#7F7F7F"/>
<mask id="mask1_5_10420" style="mask-type:luminance" maskUnits="userSpaceOnUse" x="0" y="7" width="43" height="38">
<path d="M20.4574 30.4091C20.4574 30.2243 20.5734 30.0524 20.7496 29.9837C20.9258 29.9192 21.1234 29.9622 21.2566 30.0997C21.2781 30.1255 23.448 32.4372 25.7383 32.4329C25.7812 32.4243 25.8242 32.42 25.8629 32.4114C26.7824 32.2481 27.6633 31.87 28.4711 31.406C30.4648 30.2587 31.6894 28.0716 32.2351 25.8931C32.3855 25.2958 32.5016 24.6384 33.1976 24.4923C33.3051 24.4708 33.4125 24.4579 33.5113 24.4579C34.2719 24.4579 34.925 24.9993 35.6469 25.197C36.3 25.3731 36.9961 25.4892 37.6879 25.4892C38.4699 25.4892 39.2476 25.3388 39.9351 24.9563C41.293 24.1958 42.3285 22.8122 42.191 21.2095C42.0105 19.0696 40.3777 17.4239 39.7246 15.4388C39.1488 13.6771 38.6976 11.8853 37.7609 10.2696C37.2625 9.41455 36.5707 8.86885 35.7629 8.55518C35.1871 8.33174 34.5555 8.22432 33.8851 8.22432C33.7906 8.22432 33.6961 8.22432 33.5973 8.22861C31.784 8.30596 30.1898 9.25986 28.4152 9.45752C28.3078 9.47041 28.2047 9.47471 28.1016 9.47471C27.8437 9.47471 27.5902 9.44033 27.341 9.38018C26.8941 9.27275 26.4687 9.07939 26.0519 8.86885C25.7812 8.73135 25.5148 8.59385 25.2484 8.45635C23.9894 7.80752 22.6789 7.53682 21.3641 7.53682C19.4777 7.53682 17.5828 8.09111 15.8125 8.88174C15.4344 9.04932 15.0562 9.17393 14.6609 9.17393C14.4547 9.17393 14.2398 9.13955 14.0207 9.05361C12.2933 8.3876 10.5273 7.52393 8.63671 7.52393C8.49921 7.52393 8.35311 7.52822 8.21991 7.53682C6.71171 7.64424 5.38827 8.46924 4.37421 9.54775C3.26561 10.7294 2.99491 12.229 2.72421 13.763C2.39335 15.6708 1.81327 17.3337 1.15155 19.1341C0.945302 19.6927 0.532802 20.2899 0.464052 20.8829C0.21913 23.0915 2.16561 24.0454 4.07343 24.0454C4.70507 24.0454 5.33241 23.9423 5.87382 23.7403C6.25194 23.6028 7.08124 23.0356 7.66561 23.0356C7.94061 23.0356 8.15975 23.1603 8.25429 23.5169C8.40038 24.0927 8.31015 24.6813 8.38319 25.27C8.38749 25.3044 8.39608 25.3388 8.40038 25.3731C8.49491 26.0649 8.67538 26.7438 8.9289 27.397C9.12655 27.9083 9.36288 28.3938 9.65077 28.8579C9.84413 29.1716 10.0504 29.4767 10.2824 29.7603C10.9269 30.5509 11.7648 31.1009 12.6457 31.595C13.4793 32.0634 14.6308 32.3942 15.1336 33.2751C15.7008 34.272 15.1851 35.4364 14.4976 36.227C13.2601 37.6579 11.6445 38.1692 9.91718 38.354C9.6164 38.3884 9.30702 38.4099 8.99765 38.427C8.69257 38.4442 8.38319 38.4485 8.07382 38.4528C7.70858 38.4614 7.34335 38.4614 6.97811 38.4614H6.91366C5.92538 38.4614 4.94999 38.4614 4.02616 38.5688C2.7328 38.7149 2.67694 40.9622 2.80155 41.886C3.08085 44.0345 4.49022 44.2923 6.18749 44.2923C6.5871 44.2923 6.9996 44.2794 7.4164 44.2708C7.85038 44.2622 8.28866 44.245 8.73124 44.2192C9.03632 44.2021 9.34569 44.1763 9.65077 44.1505C9.96014 44.1247 10.2695 44.0989 10.5746 44.0646C13.4707 43.738 16.3281 42.956 18.773 41.3575C18.8289 41.3231 18.8848 41.2931 18.9406 41.2587C19.7828 40.6872 20.5348 39.9353 21.1277 39.0974C21.2266 38.9599 21.3297 38.8267 21.4199 38.6849C22.0172 37.7181 22.4812 36.6696 22.6961 35.5524C22.7047 35.5052 22.709 35.4579 22.7176 35.4106C21.7808 34.6157 20.4574 33.0259 20.4574 30.4091Z" fill="white"/>
</mask>
<g mask="url(#mask1_5_10420)">
<path d="M2.60383 39.8922C2.60383 39.9179 2.59954 39.948 2.59524 39.9738C2.56516 40.266 2.40618 40.5195 2.3718 40.8074C2.34173 41.0824 2.41048 41.7312 2.81868 41.6969C3.0679 41.6754 3.2011 41.3144 3.27415 41.1211C3.72962 39.8535 4.83821 40.1328 5.90813 40.1457C6.84485 40.1543 7.78587 40.1414 8.71829 40.0769C10.5659 39.9437 11.9238 39.8793 13.548 38.9426C14.6995 38.2765 15.7523 36.8972 15.9671 35.5652C16.2722 33.6531 14.9316 32.8023 14.4675 32.5746C14.6093 33.0258 15.4601 33.7992 13.9347 35.5137C13.0925 36.4676 11.9839 37.1078 10.8109 37.516C9.22102 38.0703 7.27024 38.225 5.59016 38.066C5.16907 38.0273 4.76946 37.9199 4.34407 37.907C3.6093 37.8898 3.2054 37.8855 2.84876 38.573C2.63391 38.9941 2.6554 39.4367 2.60383 39.8922ZM8.88157 10.0676C10.5659 10.0676 12.1816 10.8883 12.0956 11.7734C12.0441 12.3277 11.262 13.0152 11.421 13.7758C12.057 14.0637 12.637 13.6769 13.2214 13.4277C14.0679 13.0625 15.5374 11.9066 17.6816 11.5242C20.1179 11.0902 22.6144 11.2062 25.0077 11.7906C25.8113 11.984 26.5288 12.2847 27.212 12.7101C28.6988 13.6297 29.6956 13.3289 30.598 12.4824C32.6003 10.6047 34.1472 10.8152 35.1269 10.8367C38.1433 10.9054 39.948 13.6683 39.948 13.6683C39.948 13.6683 39.6687 9.93865 37.1163 8.61951C36.8843 8.4992 36.5921 8.28436 36.3515 8.17693C35.8531 7.9535 35.2773 7.85037 34.7445 7.70428C34.0527 7.51522 33.3523 7.3949 32.6175 7.3949C31.6765 7.3949 30.6195 7.34334 29.7128 7.54529C29.0081 7.70428 28.2046 7.79022 27.4741 7.68279C27.0659 7.62264 26.6406 7.41209 26.2323 7.31756C25.8241 7.22733 25.4331 7.11131 25.0249 7.00818C23.9851 6.75037 22.9324 6.78045 21.8538 6.78045C20.7152 6.78045 19.598 7.01678 18.4894 7.24881C17.3937 7.48084 16.4269 7.66131 15.3097 7.54529C14.3171 7.44217 13.2429 7.30897 12.2503 7.08983C11.7347 6.97811 11.2406 6.83631 10.7206 6.76326C10.1148 6.67733 9.45735 6.68592 8.8343 6.70311C7.96204 6.72889 7.10266 6.89217 6.28196 7.18006C4.18508 7.91053 2.30735 9.22108 1.44368 11.3137C0.403835 13.8273 0.266335 16.5644 -0.842259 19.0824C-0.996946 19.439 -1.21609 19.7441 -1.31491 20.1137C-1.40085 20.4402 -1.73601 20.7324 -1.7446 21.0676C-1.7532 21.3812 -1.55554 21.5359 -1.37937 21.7594C-1.22038 21.9613 -1.14304 22.2062 -0.928196 22.3695C-0.700462 22.55 -0.395384 22.6918 -0.128978 22.8078C0.23196 22.9711 0.661647 23.0355 1.06555 22.9668C0.996804 22.7949 0.880788 22.7004 0.846413 22.5199C0.820632 22.3867 0.833522 22.1804 0.846413 22.0429C0.897975 21.4844 1.11712 21.0633 1.51673 20.698C1.98079 20.2769 2.97766 19.0824 3.59641 17.4152C4.23235 15.7051 4.3011 14.4418 4.48587 13.5179C4.94563 11.2234 6.58274 10.0676 8.88157 10.0676Z" fill="#7F7F7F"/>
</g>
<path d="M26.5075 32.7767C26.4603 32.5489 26.2669 32.3899 26.0177 32.4114C23.5857 32.6392 21.2525 29.9364 21.231 29.9106C21.1711 29.8406 21.0914 29.7904 21.0024 29.7667C20.9134 29.7429 20.8193 29.7466 20.7325 29.7774C20.5564 29.8376 20.4317 30.0052 20.4232 30.1899C20.2642 34.0013 23.0056 35.7415 23.3579 35.952C23.4653 36.0294 23.7189 36.1798 24.1013 36.2013C24.6083 36.2228 25.1196 35.995 25.6224 35.531C26.8341 34.4138 26.5204 32.8411 26.5075 32.7767Z" fill="white"/>
<path d="M27.1003 27.0659C26.2667 27.2808 25.3901 26.6405 25.1452 25.6222C24.896 24.6081 25.3815 23.5983 26.2194 23.3835C27.0573 23.1601 27.9339 23.8089 28.1788 24.8272C28.4237 25.8413 27.9382 26.8468 27.1003 27.0659ZM14.7468 25.2698C14.5019 26.2882 13.6253 26.9327 12.7874 26.7179C11.9538 26.4944 11.4683 25.4933 11.7132 24.4749C11.9624 23.4608 12.8347 22.8077 13.6726 23.0312C14.5061 23.2503 14.9874 24.2515 14.7468 25.2698Z" fill="#2F2F2F"/>
</svg>
